<?xml version="1.0" encoding="utf-8" ?>
<svg baseProfile="full" height="57.5mm" version="1.1" viewBox="0,0,306.20000000000005,57.5" width="306.20000000000005mm" xmlns="http://www.w3.org/2000/svg" xmlns:ev="http://www.w3.org/2001/xml-events" xmlns:xlink="http://www.w3.org/1999/xlink"><defs /><rect fill="#FFFFFF" height="57.5" width="306.20000000000005" x="0" y="0" /><text fill="#000000" style="font-size:6px; font-family:Arial; font-weight:bold;" x="10" y="10" /><text fill="#000000" style="font-size:3px; font-family:Arial;" x="10" y="14.4">2024: 356 hours</text><text fill="#000000" style="font-size:2.5px; font-family:Arial" x="10" y="18.3">Jan</text><rect fill="#67bf6c" height="4" rx="1" ry="1" width="4" x="10" y="19.7"><title>2024-01-01 27.73 mins</title></rect><rect fill="#ace7ae" height="4" rx="1" ry="1" width="4" x="10" y="25.1"><title>2024-01-02 0.25 mins</title></rect><rect fill="#66be6b" height="4" rx="1" ry="1" width="4" x="10" y="30.5"><title>2024-01-03 44.6 mins</title></rect><rect fill="#EBEDF0" height="4" rx="1" ry="1" width="4" x="10" y="35.9"><title>2024-01-04</title></rect><rect fill="#EBEDF0" height="4" rx="1" ry="1" width="4" x="10" y="41.300000000000004"><title>2024-01-05</title></rect><rect fill="#a7e5a9" height="4" rx="1" ry="1" width="4" x="10" y="46.699999999999996"><title>2024-01-06 20.67 mins</title></rect><rect fill="#a9e6ab" height="4" rx="1" ry="1" width="4" x="10" y="52.1"><title>2024-01-07 12.15 mins</title></rect><rect fill="#a9e6ab" height="4" rx="1" ry="1" width="4" x="15.4" y="19.7"><title>2024-01-08 13.53 mins</title></rect><rect fill="#aae6ac" height="4" rx="1" ry="1" width="4" x="15.4" y="25.1"><title>2024-01-09 9.0 mins</title></rect><rect fill="#EBEDF0" height="4" rx="1" ry="1" width="4" x="15.4" y="30.5"><title>2024-01-10</title></rect><rect fill="#EBEDF0" height="4" rx="1" ry="1" width="4" x="15.4" y="35.9"><title>2024-01-11</title></rect><rect fill="#EBEDF0" height="4" rx="1" ry="1" width="4" x="15.4" y="41.300000000000004"><title>2024-01-12</title></rect><rect fill="#ace7ae" height="4" rx="1" ry="1" width="4" x="15.4" y="46.699999999999996"><title>2024-01-13 0.32 mins</title></rect><rect fill="#ace7ae" height="4" rx="1" ry="1" width="4" x="15.4" y="52.1"><title>2024-01-14 0.1 mins</title></rect><rect fill="#EBEDF0" height="4" rx="1" ry="1" width="4" x="20.8" y="19.7"><title>2024-01-15</title></rect><rect fill="#EBEDF0" height="4" rx="1" ry="1" width="4" x="20.8" y="25.1"><title>2024-01-16</title></rect><rect fill="#EBEDF0" height="4" rx="1" ry="1" width="4" x="20.8" y="30.5"><title>2024-01-17</title></rect><rect fill="#EBEDF0" height="4" rx="1" ry="1" width="4" x="20.8" y="35.9"><title>2024-01-18</title></rect><rect fill="#EBEDF0" height="4" rx="1" ry="1" width="4" x="20.8" y="41.300000000000004"><title>2024-01-19</title></rect><rect fill="#66be6b" height="4" rx="1" ry="1" width="4" x="20.8" y="46.699999999999996"><title>2024-01-20 48.08 mins</title></rect><rect fill="#EBEDF0" height="4" rx="1" ry="1" width="4" x="20.8" y="52.1"><title>2024-01-21</title></rect><rect fill="#EBEDF0" height="4" rx="1" ry="1" width="4" x="26.200000000000003" y="19.7"><title>2024-01-22</title></rect><rect fill="#EBEDF0" height="4" rx="1" ry="1" width="4" x="26.200000000000003" y="25.1"><title>2024-01-23</title></rect><rect fill="#EBEDF0" height="4" rx="1" ry="1" width="4" x="26.200000000000003" y="30.5"><title>2024-01-24</title></rect><rect fill="#EBEDF0" height="4" rx="1" ry="1" width="4" x="26.200000000000003" y="35.9"><title>2024-01-25</title></rect><rect fill="#EBEDF0" height="4" rx="1" ry="1" width="4" x="26.200000000000003" y="41.300000000000004"><title>2024-01-26</title></rect><rect fill="#EBEDF0" height="4" rx="1" ry="1" width="4" x="26.200000000000003" y="46.699999999999996"><title>2024-01-27</title></rect><rect fill="#EBEDF0" height="4" rx="1" ry="1" width="4" x="26.200000000000003" y="52.1"><title>2024-01-28</title></rect><rect fill="#EBEDF0" height="4" rx="1" ry="1" width="4" x="31.6" y="19.7"><title>2024-01-29</title></rect><rect fill="#EBEDF0" height="4" rx="1" ry="1" width="4" x="31.6" y="25.1"><title>2024-01-30</title></rect><rect fill="#EBEDF0" height="4" rx="1" ry="1" width="4" x="31.6" y="30.5"><title>2024-01-31</title></rect><rect fill="#EBEDF0" height="4" rx="1" ry="1" width="4" x="31.6" y="35.9"><title>2024-02-01</title></rect><rect fill="#EBEDF0" height="4" rx="1" ry="1" width="4" x="31.6" y="41.300000000000004"><title>2024-02-02</title></rect><rect fill="#EBEDF0" height="4" rx="1" ry="1" width="4" x="31.6" y="46.699999999999996"><title>2024-02-03</title></rect><rect fill="#EBEDF0" height="4" rx="1" ry="1" width="4" x="31.6" y="52.1"><title>2024-02-04</title></rect><text fill="#000000" style="font-size:2.5px; font-family:Arial" x="37.0" y="18.3">Feb</text><rect fill="#EBEDF0" height="4" rx="1" ry="1" width="4" x="37.0" y="19.7"><title>2024-02-05</title></rect><rect fill="#EBEDF0" height="4" rx="1" ry="1" width="4" x="37.0" y="25.1"><title>2024-02-06</title></rect><rect fill="#EBEDF0" height="4" rx="1" ry="1" width="4" x="37.0" y="30.5"><title>2024-02-07</title></rect><rect fill="#EBEDF0" height="4" rx="1" ry="1" width="4" x="37.0" y="35.9"><title>2024-02-08</title></rect><rect fill="#EBEDF0" height="4" rx="1" ry="1" width="4" x="37.0" y="41.300000000000004"><title>2024-02-09</title></rect><rect fill="#EBEDF0" height="4" rx="1" ry="1" width="4" x="37.0" y="46.699999999999996"><title>2024-02-10</title></rect><rect fill="#EBEDF0" height="4" rx="1" ry="1" width="4" x="37.0" y="52.1"><title>2024-02-11</title></rect><rect fill="#EBEDF0" height="4" rx="1" ry="1" width="4" x="42.4" y="19.7"><title>2024-02-12</title></rect><rect fill="#67bf6c" height="4" rx="1" ry="1" width="4" x="42.4" y="25.1"><title>2024-02-13 29.05 mins</title></rect><rect fill="#67bf6c" height="4" rx="1" ry="1" width="4" x="42.4" y="30.5"><title>2024-02-14 31.27 mins</title></rect><rect fill="#66be6b" height="4" rx="1" ry="1" width="4" x="42.4" y="35.9"><title>2024-02-15 48.5 mins</title></rect><rect fill="#549F57" height="4" rx="1" ry="1" width="4" x="42.4" y="41.300000000000004"><title>2024-02-16 83.48 mins</title></rect><rect fill="#67bf6b" height="4" rx="1" ry="1" width="4" x="42.4" y="46.699999999999996"><title>2024-02-17 43.32 mins</title></rect><rect fill="#abe7ad" height="4" rx="1" ry="1" width="4" x="42.4" y="52.1"><title>2024-02-18 4.33 mins</title></rect><rect fill="#549F57" height="4" rx="1" ry="1" width="4" x="47.8" y="19.7"><title>2024-02-19 191.5 mins</title></rect><rect fill="#549F57" height="4" rx="1" ry="1" width="4" x="47.8" y="25.1"><title>2024-02-20 96.08 mins</title></rect><rect fill="#549F57" height="4" rx="1" ry="1" width="4" x="47.8" y="30.5"><title>2024-02-21 209.87 mins</title></rect><rect fill="#abe6ad" height="4" rx="1" ry="1" width="4" x="47.8" y="35.9"><title>2024-02-22 4.98 mins</title></rect><rect fill="#66be6b" height="4" rx="1" ry="1" width="4" x="47.8" y="41.300000000000004"><title>2024-02-23 47.15 mins</title></rect><rect fill="#a7e5a9" height="4" rx="1" ry="1" width="4" x="47.8" y="46.699999999999996"><title>2024-02-24 20.58 mins</title></rect><rect fill="#66be6b" height="4" rx="1" ry="1" width="4" x="47.8" y="52.1"><title>2024-02-25 51.05 mins</title></rect><rect fill="#a7e5a9" height="4" rx="1" ry="1" width="4" x="53.199999999999996" y="19.7"><title>2024-02-26 21.42 mins</title></rect><rect fill="#aae6ac" height="4" rx="1" ry="1" width="4" x="53.199999999999996" y="25.1"><title>2024-02-27 8.15 mins</title></rect><rect fill="#a9e6ab" height="4" rx="1" ry="1" width="4" x="53.199999999999996" y="30.5"><title>2024-02-28 14.02 mins</title></rect><rect fill="#abe7ad" height="4" rx="1" ry="1" width="4" x="53.199999999999996" y="35.9"><title>2024-02-29 4.95 mins</title></rect><rect fill="#aae6ac" height="4" rx="1" ry="1" width="4" x="53.199999999999996" y="41.300000000000004"><title>2024-03-01 8.87 mins</title></rect><rect fill="#67bf6c" height="4" rx="1" ry="1" width="4" x="53.199999999999996" y="46.699999999999996"><title>2024-03-02 35.85 mins</title></rect><rect fill="#549F57" height="4" rx="1" ry="1" width="4" x="53.199999999999996" y="52.1"><title>2024-03-03 143.2 mins</title></rect><text fill="#000000" style="font-size:2.5px; font-family:Arial" x="58.599999999999994" y="18.3">Mar</text><rect fill="#67bf6c" height="4" rx="1" ry="1" width="4" x="58.599999999999994" y="19.7"><title>2024-03-04 34.45 mins</title></rect><rect fill="#549F57" height="4" rx="1" ry="1" width="4" x="58.599999999999994" y="25.1"><title>2024-03-05 93.1 mins</title></rect><rect fill="#549F57" height="4" rx="1" ry="1" width="4" x="58.599999999999994" y="30.5"><title>2024-03-06 146.17 mins</title></rect><rect fill="#549F57" height="4" rx="1" ry="1" width="4" x="58.599999999999994" y="35.9"><title>2024-03-07 229.08 mins</title></rect><rect fill="#549F57" height="4" rx="1" ry="1" width="4" x="58.599999999999994" y="41.300000000000004"><title>2024-03-08 228.37 mins</title></rect><rect fill="#67bf6c" height="4" rx="1" ry="1" width="4" x="58.599999999999994" y="46.699999999999996"><title>2024-03-09 41.8 mins</title></rect><rect fill="#67bf6c" height="4" rx="1" ry="1" width="4" x="58.599999999999994" y="52.1"><title>2024-03-10 30.62 mins</title></rect><rect fill="#549F57" height="4" rx="1" ry="1" width="4" x="63.99999999999999" y="19.7"><title>2024-03-11 73.52 mins</title></rect><rect fill="#a8e5aa" height="4" rx="1" ry="1" width="4" x="63.99999999999999" y="25.1"><title>2024-03-12 16.75 mins</title></rect><rect fill="#abe7ad" height="4" rx="1" ry="1" width="4" x="63.99999999999999" y="30.5"><title>2024-03-13 2.45 mins</title></rect><rect fill="#549F57" height="4" rx="1" ry="1" width="4" x="63.99999999999999" y="35.9"><title>2024-03-14 92.07 mins</title></rect><rect fill="#67be6b" height="4" rx="1" ry="1" width="4" x="63.99999999999999" y="41.300000000000004"><title>2024-03-15 43.95 mins</title></rect><rect fill="#66be6b" height="4" rx="1" ry="1" width="4" x="63.99999999999999" y="46.699999999999996"><title>2024-03-16 54.5 mins</title></rect><rect fill="#66be6b" height="4" rx="1" ry="1" width="4" x="63.99999999999999" y="52.1"><title>2024-03-17 47.72 mins</title></rect><rect fill="#549F57" height="4" rx="1" ry="1" width="4" x="69.39999999999999" y="19.7"><title>2024-03-18 74.72 mins</title></rect><rect fill="#a9e6ab" height="4" rx="1" ry="1" width="4" x="69.39999999999999" y="25.1"><title>2024-03-19 12.32 mins</title></rect><rect fill="#ace7ae" height="4" rx="1" ry="1" width="4" x="69.39999999999999" y="30.5"><title>2024-03-20 0.33 mins</title></rect><rect fill="#549F57" height="4" rx="1" ry="1" width="4" x="69.39999999999999" y="35.9"><title>2024-03-21 89.75 mins</title></rect><rect fill="#549F57" height="4" rx="1" ry="1" width="4" x="69.39999999999999" y="41.300000000000004"><title>2024-03-22 130.43 mins</title></rect><rect fill="#abe6ad" height="4" rx="1" ry="1" width="4" x="69.39999999999999" y="46.699999999999996"><title>2024-03-23 6.38 mins</title></rect><rect fill="#67bf6c" height="4" rx="1" ry="1" width="4" x="69.39999999999999" y="52.1"><title>2024-03-24 41.28 mins</title></rect><rect fill="#aae6ac" height="4" rx="1" ry="1" width="4" x="74.8" y="19.7"><title>2024-03-25 7.32 mins</title></rect><rect fill="#ace7ae" height="4" rx="1" ry="1" width="4" x="74.8" y="25.1"><title>2024-03-26 0.52 mins</title></rect><rect fill="#ace7ae" height="4" rx="1" ry="1" width="4" x="74.8" y="30.5"><title>2024-03-27 1.72 mins</title></rect><rect fill="#a8e5aa" height="4" rx="1" ry="1" width="4" x="74.8" y="35.9"><title>2024-03-28 16.7 mins</title></rect><rect fill="#aae6ac" height="4" rx="1" ry="1" width="4" x="74.8" y="41.300000000000004"><title>2024-03-29 8.22 mins</title></rect><rect fill="#67bf6c" height="4" rx="1" ry="1" width="4" x="74.8" y="46.699999999999996"><title>2024-03-30 35.42 mins</title></rect><rect fill="#67bf6c" height="4" rx="1" ry="1" width="4" x="74.8" y="52.1"><title>2024-03-31 34.18 mins</title></rect><text fill="#000000" style="font-size:2.5px; font-family:Arial" x="80.2" y="18.3">Apr</text><rect fill="#aae6ac" height="4" rx="1" ry="1" width="4" x="80.2" y="19.7"><title>2024-04-01 8.73 mins</title></rect><rect fill="#549F57" height="4" rx="1" ry="1" width="4" x="80.2" y="25.1"><title>2024-04-02 389.4 mins</title></rect><rect fill="#549F57" height="4" rx="1" ry="1" width="4" x="80.2" y="30.5"><title>2024-04-03 79.32 mins</title></rect><rect fill="#549F57" height="4" rx="1" ry="1" width="4" x="80.2" y="35.9"><title>2024-04-04 262.65 mins</title></rect><rect fill="#549F57" height="4" rx="1" ry="1" width="4" x="80.2" y="41.300000000000004"><title>2024-04-05 166.52 mins</title></rect><rect fill="#549F57" height="4" rx="1" ry="1" width="4" x="80.2" y="46.699999999999996"><title>2024-04-06 172.93 mins</title></rect><rect fill="#549F57" height="4" rx="1" ry="1" width="4" x="80.2" y="52.1"><title>2024-04-07 273.15 mins</title></rect><rect fill="#549F57" height="4" rx="1" ry="1" width="4" x="85.60000000000001" y="19.7"><title>2024-04-08 204.28 mins</title></rect><rect fill="#549F57" height="4" rx="1" ry="1" width="4" x="85.60000000000001" y="25.1"><title>2024-04-09 231.33 mins</title></rect><rect fill="#549F57" height="4" rx="1" ry="1" width="4" x="85.60000000000001" y="30.5"><title>2024-04-10 172.37 mins</title></rect><rect fill="#549F57" height="4" rx="1" ry="1" width="4" x="85.60000000000001" y="35.9"><title>2024-04-11 87.57 mins</title></rect><rect fill="#67bf6c" height="4" rx="1" ry="1" width="4" x="85.60000000000001" y="41.300000000000004"><title>2024-04-12 28.5 mins</title></rect><rect fill="#66be6b" height="4" rx="1" ry="1" width="4" x="85.60000000000001" y="46.699999999999996"><title>2024-04-13 55.32 mins</title></rect><rect fill="#549F57" height="4" rx="1" ry="1" width="4" x="85.60000000000001" y="52.1"><title>2024-04-14 89.87 mins</title></rect><rect fill="#65bd6a" height="4" rx="1" ry="1" width="4" x="91.00000000000001" y="19.7"><title>2024-04-15 68.83 mins</title></rect><rect fill="#549F57" height="4" rx="1" ry="1" width="4" x="91.00000000000001" y="25.1"><title>2024-04-16 120.62 mins</title></rect><rect fill="#a9e6ab" height="4" rx="1" ry="1" width="4" x="91.00000000000001" y="30.5"><title>2024-04-17 14.0 mins</title></rect><rect fill="#aae6ac" height="4" rx="1" ry="1" width="4" x="91.00000000000001" y="35.9"><title>2024-04-18 7.47 mins</title></rect><rect fill="#ace7ae" height="4" rx="1" ry="1" width="4" x="91.00000000000001" y="41.300000000000004"><title>2024-04-19 1.23 mins</title></rect><rect fill="#67bf6c" height="4" rx="1" ry="1" width="4" x="91.00000000000001" y="46.699999999999996"><title>2024-04-20 41.08 mins</title></rect><rect fill="#549F57" height="4" rx="1" ry="1" width="4" x="91.00000000000001" y="52.1"><title>2024-04-21 77.92 mins</title></rect><rect fill="#549F57" height="4" rx="1" ry="1" width="4" x="96.40000000000002" y="19.7"><title>2024-04-22 237.25 mins</title></rect><rect fill="#549F57" height="4" rx="1" ry="1" width="4" x="96.40000000000002" y="25.1"><title>2024-04-23 75.17 mins</title></rect><rect fill="#549F57" height="4" rx="1" ry="1" width="4" x="96.40000000000002" y="30.5"><title>2024-04-24 103.22 mins</title></rect><rect fill="#549F57" height="4" rx="1" ry="1" width="4" x="96.40000000000002" y="35.9"><title>2024-04-25 89.37 mins</title></rect><rect fill="#66be6b" height="4" rx="1" ry="1" width="4" x="96.40000000000002" y="41.300000000000004"><title>2024-04-26 49.4 mins</title></rect><rect fill="#549F57" height="4" rx="1" ry="1" width="4" x="96.40000000000002" y="46.699999999999996"><title>2024-04-27 123.48 mins</title></rect><rect fill="#abe6ad" height="4" rx="1" ry="1" width="4" x="96.40000000000002" y="52.1"><title>2024-04-28 5.85 mins</title></rect><rect fill="#a9e6ab" height="4" rx="1" ry="1" width="4" x="101.80000000000003" y="19.7"><title>2024-04-29 11.37 mins</title></rect><rect fill="#67bf6c" height="4" rx="1" ry="1" width="4" x="101.80000000000003" y="25.1"><title>2024-04-30 37.9 mins</title></rect><rect fill="#549F57" height="4" rx="1" ry="1" width="4" x="101.80000000000003" y="30.5"><title>2024-05-01 166.62 mins</title></rect><rect fill="#66be6b" height="4" rx="1" ry="1" width="4" x="101.80000000000003" y="35.9"><title>2024-05-02 51.55 mins</title></rect><rect fill="#a7e5a9" height="4" rx="1" ry="1" width="4" x="101.80000000000003" y="41.300000000000004"><title>2024-05-03 20.9 mins</title></rect><rect fill="#65bd6a" height="4" rx="1" ry="1" width="4" x="101.80000000000003" y="46.699999999999996"><title>2024-05-04 70.63 mins</title></rect><rect fill="#a7e5a9" height="4" rx="1" ry="1" width="4" x="101.80000000000003" y="52.1"><title>2024-05-05 21.57 mins</title></rect><text fill="#000000" style="font-size:2.5px; font-family:Arial" x="107.20000000000003" y="18.3">May</text><rect fill="#67bf6c" height="4" rx="1" ry="1" width="4" x="107.20000000000003" y="19.7"><title>2024-05-06 38.0 mins</title></rect><rect fill="#ace7ae" height="4" rx="1" ry="1" width="4" x="107.20000000000003" y="25.1"><title>2024-05-07 0.13 mins</title></rect><rect fill="#aae6ac" height="4" rx="1" ry="1" width="4" x="107.20000000000003" y="30.5"><title>2024-05-08 10.28 mins</title></rect><rect fill="#549F57" height="4" rx="1" ry="1" width="4" x="107.20000000000003" y="35.9"><title>2024-05-09 101.13 mins</title></rect><rect fill="#a7e5a9" height="4" rx="1" ry="1" width="4" x="107.20000000000003" y="41.300000000000004"><title>2024-05-10 21.37 mins</title></rect><rect fill="#67bf6c" height="4" rx="1" ry="1" width="4" x="107.20000000000003" y="46.699999999999996"><title>2024-05-11 34.88 mins</title></rect><rect fill="#66be6a" height="4" rx="1" ry="1" width="4" x="107.20000000000003" y="52.1"><title>2024-05-12 59.22 mins</title></rect><rect fill="#549F57" height="4" rx="1" ry="1" width="4" x="112.60000000000004" y="19.7"><title>2024-05-13 85.52 mins</title></rect><rect fill="#abe6ad" height="4" rx="1" ry="1" width="4" x="112.60000000000004" y="25.1"><title>2024-05-14 5.87 mins</title></rect><rect fill="#67bf6c" height="4" rx="1" ry="1" width="4" x="112.60000000000004" y="30.5"><title>2024-05-15 35.45 mins</title></rect><rect fill="#abe6ad" height="4" rx="1" ry="1" width="4" x="112.60000000000004" y="35.9"><title>2024-05-16 6.23 mins</title></rect><rect fill="#66be6b" height="4" rx="1" ry="1" width="4" x="112.60000000000004" y="41.300000000000004"><title>2024-05-17 51.87 mins</title></rect><rect fill="#67bf6b" height="4" rx="1" ry="1" width="4" x="112.60000000000004" y="46.699999999999996"><title>2024-05-18 42.02 mins</title></rect><rect fill="#ace7ae" height="4" rx="1" ry="1" width="4" x="112.60000000000004" y="52.1"><title>2024-05-19 0.17 mins</title></rect><rect fill="#549F57" height="4" rx="1" ry="1" width="4" x="118.00000000000004" y="19.7"><title>2024-05-20 124.67 mins</title></rect><rect fill="#549F57" height="4" rx="1" ry="1" width="4" x="118.00000000000004" y="25.1"><title>2024-05-21 229.62 mins</title></rect><rect fill="#EBEDF0" height="4" rx="1" ry="1" width="4" x="118.00000000000004" y="30.5"><title>2024-05-22</title></rect><rect fill="#66be6b" height="4" rx="1" ry="1" width="4" x="118.00000000000004" y="35.9"><title>2024-05-23 57.95 mins</title></rect><rect fill="#67bf6c" height="4" rx="1" ry="1" width="4" x="118.00000000000004" y="41.300000000000004"><title>2024-05-24 34.32 mins</title></rect><rect fill="#abe6ad" height="4" rx="1" ry="1" width="4" x="118.00000000000004" y="46.699999999999996"><title>2024-05-25 6.02 mins</title></rect><rect fill="#EBEDF0" height="4" rx="1" ry="1" width="4" x="118.00000000000004" y="52.1"><title>2024-05-26</title></rect><rect fill="#67bf6c" height="4" rx="1" ry="1" width="4" x="123.40000000000005" y="19.7"><title>2024-05-27 34.87 mins</title></rect><rect fill="#65bd6a" height="4" rx="1" ry="1" width="4" x="123.40000000000005" y="25.1"><title>2024-05-28 64.18 mins</title></rect><rect fill="#66be6b" height="4" rx="1" ry="1" width="4" x="123.40000000000005" y="30.5"><title>2024-05-29 50.33 mins</title></rect><rect fill="#EBEDF0" height="4" rx="1" ry="1" width="4" x="123.40000000000005" y="35.9"><title>2024-05-30</title></rect><rect fill="#549F57" height="4" rx="1" ry="1" width="4" x="123.40000000000005" y="41.300000000000004"><title>2024-05-31 95.83 mins</title></rect><rect fill="#67bf6b" height="4" rx="1" ry="1" width="4" x="123.40000000000005" y="46.699999999999996"><title>2024-06-01 42.33 mins</title></rect><rect fill="#67bf6c" height="4" rx="1" ry="1" width="4" x="123.40000000000005" y="52.1"><title>2024-06-02 31.7 mins</title></rect><text fill="#000000" style="font-size:2.5px; font-family:Arial" x="128.80000000000004" y="18.3">Jun</text><rect fill="#a9e6ab" height="4" rx="1" ry="1" width="4" x="128.80000000000004" y="19.7"><title>2024-06-03 11.37 mins</title></rect><rect fill="#549F57" height="4" rx="1" ry="1" width="4" x="128.80000000000004" y="25.1"><title>2024-06-04 172.75 mins</title></rect><rect fill="#549F57" height="4" rx="1" ry="1" width="4" x="128.80000000000004" y="30.5"><title>2024-06-05 94.77 mins</title></rect><rect fill="#67bf6c" height="4" rx="1" ry="1" width="4" x="128.80000000000004" y="35.9"><title>2024-06-06 37.35 mins</title></rect><rect fill="#66be6b" height="4" rx="1" ry="1" width="4" x="128.80000000000004" y="41.300000000000004"><title>2024-06-07 58.1 mins</title></rect><rect fill="#66be6b" height="4" rx="1" ry="1" width="4" x="128.80000000000004" y="46.699999999999996"><title>2024-06-08 54.67 mins</title></rect><rect fill="#67bf6c" height="4" rx="1" ry="1" width="4" x="128.80000000000004" y="52.1"><title>2024-06-09 32.47 mins</title></rect><rect fill="#67bf6b" height="4" rx="1" ry="1" width="4" x="134.20000000000005" y="19.7"><title>2024-06-10 43.48 mins</title></rect><rect fill="#65bd6a" height="4" rx="1" ry="1" width="4" x="134.20000000000005" y="25.1"><title>2024-06-11 63.08 mins</title></rect><rect fill="#549F57" height="4" rx="1" ry="1" width="4" x="134.20000000000005" y="30.5"><title>2024-06-12 87.15 mins</title></rect><rect fill="#a9e6ab" height="4" rx="1" ry="1" width="4" x="134.20000000000005" y="35.9"><title>2024-06-13 11.63 mins</title></rect><rect fill="#68c06c" height="4" rx="1" ry="1" width="4" x="134.20000000000005" y="41.300000000000004"><title>2024-06-14 25.83 mins</title></rect><rect fill="#ace7ae" height="4" rx="1" ry="1" width="4" x="134.20000000000005" y="46.699999999999996"><title>2024-06-15 1.18 mins</title></rect><rect fill="#67bf6c" height="4" rx="1" ry="1" width="4" x="134.20000000000005" y="52.1"><title>2024-06-16 32.77 mins</title></rect><rect fill="#66be6b" height="4" rx="1" ry="1" width="4" x="139.60000000000005" y="19.7"><title>2024-06-17 45.23 mins</title></rect><rect fill="#66be6b" height="4" rx="1" ry="1" width="4" x="139.60000000000005" y="25.1"><title>2024-06-18 57.27 mins</title></rect><rect fill="#a7e5a9" height="4" rx="1" ry="1" width="4" x="139.60000000000005" y="30.5"><title>2024-06-19 23.65 mins</title></rect><rect fill="#549F57" height="4" rx="1" ry="1" width="4" x="139.60000000000005" y="35.9"><title>2024-06-20 84.27 mins</title></rect><rect fill="#abe7ad" height="4" rx="1" ry="1" width="4" x="139.60000000000005" y="41.300000000000004"><title>2024-06-21 4.32 mins</title></rect><rect fill="#66be6b" height="4" rx="1" ry="1" width="4" x="139.60000000000005" y="46.699999999999996"><title>2024-06-22 54.37 mins</title></rect><rect fill="#a9e6ab" height="4" rx="1" ry="1" width="4" x="139.60000000000005" y="52.1"><title>2024-06-23 13.17 mins</title></rect><rect fill="#549F57" height="4" rx="1" ry="1" width="4" x="145.00000000000006" y="19.7"><title>2024-06-24 79.25 mins</title></rect><rect fill="#68c06c" height="4" rx="1" ry="1" width="4" x="145.00000000000006" y="25.1"><title>2024-06-25 25.53 mins</title></rect><rect fill="#549F57" height="4" rx="1" ry="1" width="4" x="145.00000000000006" y="30.5"><title>2024-06-26 393.18 mins</title></rect><rect fill="#549F57" height="4" rx="1" ry="1" width="4" x="145.00000000000006" y="35.9"><title>2024-06-27 87.85 mins</title></rect><rect fill="#66be6b" height="4" rx="1" ry="1" width="4" x="145.00000000000006" y="41.300000000000004"><title>2024-06-28 47.52 mins</title></rect><rect fill="#a8e5aa" height="4" rx="1" ry="1" width="4" x="145.00000000000006" y="46.699999999999996"><title>2024-06-29 16.13 mins</title></rect><rect fill="#aae6ac" height="4" rx="1" ry="1" width="4" x="145.00000000000006" y="52.1"><title>2024-06-30 10.5 mins</title></rect><text fill="#000000" style="font-size:2.5px; font-family:Arial" x="150.40000000000006" y="18.3">Jul</text><rect fill="#a9e5ab" height="4" rx="1" ry="1" width="4" x="150.40000000000006" y="19.7"><title>2024-07-01 14.8 mins</title></rect><rect fill="#67bf6c" height="4" rx="1" ry="1" width="4" x="150.40000000000006" y="25.1"><title>2024-07-02 31.22 mins</title></rect><rect fill="#67bf6c" height="4" rx="1" ry="1" width="4" x="150.40000000000006" y="30.5"><title>2024-07-03 40.92 mins</title></rect><rect fill="#549F57" height="4" rx="1" ry="1" width="4" x="150.40000000000006" y="35.9"><title>2024-07-04 157.5 mins</title></rect><rect fill="#66be6b" height="4" rx="1" ry="1" width="4" x="150.40000000000006" y="41.300000000000004"><title>2024-07-05 44.92 mins</title></rect><rect fill="#549F57" height="4" rx="1" ry="1" width="4" x="150.40000000000006" y="46.699999999999996"><title>2024-07-06 124.27 mins</title></rect><rect fill="#549F57" height="4" rx="1" ry="1" width="4" x="150.40000000000006" y="52.1"><title>2024-07-07 102.73 mins</title></rect><rect fill="#549F57" height="4" rx="1" ry="1" width="4" x="155.80000000000007" y="19.7"><title>2024-07-08 189.4 mins</title></rect><rect fill="#549F57" height="4" rx="1" ry="1" width="4" x="155.80000000000007" y="25.1"><title>2024-07-09 247.68 mins</title></rect><rect fill="#549F57" height="4" rx="1" ry="1" width="4" x="155.80000000000007" y="30.5"><title>2024-07-10 230.12 mins</title></rect><rect fill="#549F57" height="4" rx="1" ry="1" width="4" x="155.80000000000007" y="35.9"><title>2024-07-11 127.82 mins</title></rect><rect fill="#a7e5a9" height="4" rx="1" ry="1" width="4" x="155.80000000000007" y="41.300000000000004"><title>2024-07-12 20.87 mins</title></rect><rect fill="#66be6b" height="4" rx="1" ry="1" width="4" x="155.80000000000007" y="46.699999999999996"><title>2024-07-13 56.92 mins</title></rect><rect fill="#66bd6a" height="4" rx="1" ry="1" width="4" x="155.80000000000007" y="52.1"><title>2024-07-14 61.8 mins</title></rect><rect fill="#65bd6a" height="4" rx="1" ry="1" width="4" x="161.20000000000007" y="19.7"><title>2024-07-15 64.0 mins</title></rect><rect fill="#67bf6c" height="4" rx="1" ry="1" width="4" x="161.20000000000007" y="25.1"><title>2024-07-16 38.42 mins</title></rect><rect fill="#a7e5a9" height="4" rx="1" ry="1" width="4" x="161.20000000000007" y="30.5"><title>2024-07-17 22.8 mins</title></rect><rect fill="#67bf6c" height="4" rx="1" ry="1" width="4" x="161.20000000000007" y="35.9"><title>2024-07-18 35.55 mins</title></rect><rect fill="#67bf6c" height="4" rx="1" ry="1" width="4" x="161.20000000000007" y="41.300000000000004"><title>2024-07-19 27.8 mins</title></rect><rect fill="#549F57" height="4" rx="1" ry="1" width="4" x="161.20000000000007" y="46.699999999999996"><title>2024-07-20 111.53 mins</title></rect><rect fill="#549F57" height="4" rx="1" ry="1" width="4" x="161.20000000000007" y="52.1"><title>2024-07-21 285.13 mins</title></rect><rect fill="#a8e5aa" height="4" rx="1" ry="1" width="4" x="166.60000000000008" y="19.7"><title>2024-07-22 18.03 mins</title></rect><rect fill="#abe7ad" height="4" rx="1" ry="1" width="4" x="166.60000000000008" y="25.1"><title>2024-07-23 3.6 mins</title></rect><rect fill="#67bf6c" height="4" rx="1" ry="1" width="4" x="166.60000000000008" y="30.5"><title>2024-07-24 40.65 mins</title></rect><rect fill="#67bf6b" height="4" rx="1" ry="1" width="4" x="166.60000000000008" y="35.9"><title>2024-07-25 42.87 mins</title></rect><rect fill="#549F57" height="4" rx="1" ry="1" width="4" x="166.60000000000008" y="41.300000000000004"><title>2024-07-26 96.55 mins</title></rect><rect fill="#549F57" height="4" rx="1" ry="1" width="4" x="166.60000000000008" y="46.699999999999996"><title>2024-07-27 111.37 mins</title></rect><rect fill="#66be6b" height="4" rx="1" ry="1" width="4" x="166.60000000000008" y="52.1"><title>2024-07-28 55.7 mins</title></rect><rect fill="#549F57" height="4" rx="1" ry="1" width="4" x="172.00000000000009" y="19.7"><title>2024-07-29 182.98 mins</title></rect><rect fill="#549F57" height="4" rx="1" ry="1" width="4" x="172.00000000000009" y="25.1"><title>2024-07-30 139.02 mins</title></rect><rect fill="#549F57" height="4" rx="1" ry="1" width="4" x="172.00000000000009" y="30.5"><title>2024-07-31 135.82 mins</title></rect><rect fill="#549F57" height="4" rx="1" ry="1" width="4" x="172.00000000000009" y="35.9"><title>2024-08-01 117.13 mins</title></rect><rect fill="#549F57" height="4" rx="1" ry="1" width="4" x="172.00000000000009" y="41.300000000000004"><title>2024-08-02 113.13 mins</title></rect><rect fill="#abe7ad" height="4" rx="1" ry="1" width="4" x="172.00000000000009" y="46.699999999999996"><title>2024-08-03 3.47 mins</title></rect><rect fill="#549F57" height="4" rx="1" ry="1" width="4" x="172.00000000000009" y="52.1"><title>2024-08-04 272.15 mins</title></rect><text fill="#000000" style="font-size:2.5px; font-family:Arial" x="177.4000000000001" y="18.3">Aug</text><rect fill="#549F57" height="4" rx="1" ry="1" width="4" x="177.4000000000001" y="19.7"><title>2024-08-05 143.42 mins</title></rect><rect fill="#66be6b" height="4" rx="1" ry="1" width="4" x="177.4000000000001" y="25.1"><title>2024-08-06 48.42 mins</title></rect><rect fill="#68c06c" height="4" rx="1" ry="1" width="4" x="177.4000000000001" y="30.5"><title>2024-08-07 25.93 mins</title></rect><rect fill="#549F57" height="4" rx="1" ry="1" width="4" x="177.4000000000001" y="35.9"><title>2024-08-08 86.03 mins</title></rect><rect fill="#549F57" height="4" rx="1" ry="1" width="4" x="177.4000000000001" y="41.300000000000004"><title>2024-08-09 87.82 mins</title></rect><rect fill="#a7e5a9" height="4" rx="1" ry="1" width="4" x="177.4000000000001" y="46.699999999999996"><title>2024-08-10 23.65 mins</title></rect><rect fill="#68c06d" height="4" rx="1" ry="1" width="4" x="177.4000000000001" y="52.1"><title>2024-08-11 24.07 mins</title></rect><rect fill="#66be6b" height="4" rx="1" ry="1" width="4" x="182.8000000000001" y="19.7"><title>2024-08-12 49.05 mins</title></rect><rect fill="#a9e6ab" height="4" rx="1" ry="1" width="4" x="182.8000000000001" y="25.1"><title>2024-08-13 13.78 mins</title></rect><rect fill="#549F57" height="4" rx="1" ry="1" width="4" x="182.8000000000001" y="30.5"><title>2024-08-14 154.9 mins</title></rect><rect fill="#65bd6a" height="4" rx="1" ry="1" width="4" x="182.8000000000001" y="35.9"><title>2024-08-15 71.78 mins</title></rect><rect fill="#549F57" height="4" rx="1" ry="1" width="4" x="182.8000000000001" y="41.300000000000004"><title>2024-08-16 80.6 mins</title></rect><rect fill="#66be6b" height="4" rx="1" ry="1" width="4" x="182.8000000000001" y="46.699999999999996"><title>2024-08-17 54.3 mins</title></rect><rect fill="#a9e6ab" height="4" rx="1" ry="1" width="4" x="182.8000000000001" y="52.1"><title>2024-08-18 12.28 mins</title></rect><rect fill="#66be6b" height="4" rx="1" ry="1" width="4" x="188.2000000000001" y="19.7"><title>2024-08-19 58.52 mins</title></rect><rect fill="#66be6b" height="4" rx="1" ry="1" width="4" x="188.2000000000001" y="25.1"><title>2024-08-20 53.73 mins</title></rect><rect fill="#549F57" height="4" rx="1" ry="1" width="4" x="188.2000000000001" y="30.5"><title>2024-08-21 76.75 mins</title></rect><rect fill="#549F57" height="4" rx="1" ry="1" width="4" x="188.2000000000001" y="35.9"><title>2024-08-22 105.88 mins</title></rect><rect fill="#549F57" height="4" rx="1" ry="1" width="4" x="188.2000000000001" y="41.300000000000004"><title>2024-08-23 154.33 mins</title></rect><rect fill="#aae6ac" height="4" rx="1" ry="1" width="4" x="188.2000000000001" y="46.699999999999996"><title>2024-08-24 8.18 mins</title></rect><rect fill="#549F57" height="4" rx="1" ry="1" width="4" x="188.2000000000001" y="52.1"><title>2024-08-25 73.82 mins</title></rect><rect fill="#549F57" height="4" rx="1" ry="1" width="4" x="193.6000000000001" y="19.7"><title>2024-08-26 82.42 mins</title></rect><rect fill="#66be6b" height="4" rx="1" ry="1" width="4" x="193.6000000000001" y="25.1"><title>2024-08-27 57.58 mins</title></rect><rect fill="#68c06d" height="4" rx="1" ry="1" width="4" x="193.6000000000001" y="30.5"><title>2024-08-28 24.05 mins</title></rect><rect fill="#67bf6c" height="4" rx="1" ry="1" width="4" x="193.6000000000001" y="35.9"><title>2024-08-29 32.65 mins</title></rect><rect fill="#a7e5aa" height="4" rx="1" ry="1" width="4" x="193.6000000000001" y="41.300000000000004"><title>2024-08-30 20.05 mins</title></rect><rect fill="#ace7ae" height="4" rx="1" ry="1" width="4" x="193.6000000000001" y="46.699999999999996"><title>2024-08-31 0.83 mins</title></rect><rect fill="#a9e6ac" height="4" rx="1" ry="1" width="4" x="193.6000000000001" y="52.1"><title>2024-09-01 11.02 mins</title></rect><text fill="#000000" style="font-size:2.5px; font-family:Arial" x="199.0000000000001" y="18.3">Sep</text><rect fill="#549F57" height="4" rx="1" ry="1" width="4" x="199.0000000000001" y="19.7"><title>2024-09-02 79.83 mins</title></rect><rect fill="#549F57" height="4" rx="1" ry="1" width="4" x="199.0000000000001" y="25.1"><title>2024-09-03 74.9 mins</title></rect><rect fill="#549F57" height="4" rx="1" ry="1" width="4" x="199.0000000000001" y="30.5"><title>2024-09-04 179.18 mins</title></rect><rect fill="#67bf6c" height="4" rx="1" ry="1" width="4" x="199.0000000000001" y="35.9"><title>2024-09-05 32.38 mins</title></rect><rect fill="#a7e5a9" height="4" rx="1" ry="1" width="4" x="199.0000000000001" y="41.300000000000004"><title>2024-09-06 20.52 mins</title></rect><rect fill="#abe7ad" height="4" rx="1" ry="1" width="4" x="199.0000000000001" y="46.699999999999996"><title>2024-09-07 4.12 mins</title></rect><rect fill="#67bf6c" height="4" rx="1" ry="1" width="4" x="199.0000000000001" y="52.1"><title>2024-09-08 37.6 mins</title></rect><rect fill="#66be6b" height="4" rx="1" ry="1" width="4" x="204.40000000000012" y="19.7"><title>2024-09-09 56.87 mins</title></rect><rect fill="#68c06d" height="4" rx="1" ry="1" width="4" x="204.40000000000012" y="25.1"><title>2024-09-10 24.27 mins</title></rect><rect fill="#a9e6ab" height="4" rx="1" ry="1" width="4" x="204.40000000000012" y="30.5"><title>2024-09-11 13.2 mins</title></rect><rect fill="#549F57" height="4" rx="1" ry="1" width="4" x="204.40000000000012" y="35.9"><title>2024-09-12 95.98 mins</title></rect><rect fill="#EBEDF0" height="4" rx="1" ry="1" width="4" x="204.40000000000012" y="41.300000000000004"><title>2024-09-13</title></rect><rect fill="#67bf6c" height="4" rx="1" ry="1" width="4" x="204.40000000000012" y="46.699999999999996"><title>2024-09-14 32.48 mins</title></rect><rect fill="#68c06d" height="4" rx="1" ry="1" width="4" x="204.40000000000012" y="52.1"><title>2024-09-15 24.43 mins</title></rect><rect fill="#549F57" height="4" rx="1" ry="1" width="4" x="209.80000000000013" y="19.7"><title>2024-09-16 103.02 mins</title></rect><rect fill="#65bd6a" height="4" rx="1" ry="1" width="4" x="209.80000000000013" y="25.1"><title>2024-09-17 63.67 mins</title></rect><rect fill="#a8e5aa" height="4" rx="1" ry="1" width="4" x="209.80000000000013" y="30.5"><title>2024-09-18 17.78 mins</title></rect><rect fill="#a8e5ab" height="4" rx="1" ry="1" width="4" x="209.80000000000013" y="35.9"><title>2024-09-19 15.6 mins</title></rect><rect fill="#65bd6a" height="4" rx="1" ry="1" width="4" x="209.80000000000013" y="41.300000000000004"><title>2024-09-20 63.98 mins</title></rect><rect fill="#549F57" height="4" rx="1" ry="1" width="4" x="209.80000000000013" y="46.699999999999996"><title>2024-09-21 111.17 mins</title></rect><rect fill="#549F57" height="4" rx="1" ry="1" width="4" x="209.80000000000013" y="52.1"><title>2024-09-22 74.7 mins</title></rect><rect fill="#66be6b" height="4" rx="1" ry="1" width="4" x="215.20000000000013" y="19.7"><title>2024-09-23 50.62 mins</title></rect><rect fill="#549F57" height="4" rx="1" ry="1" width="4" x="215.20000000000013" y="25.1"><title>2024-09-24 92.5 mins</title></rect><rect fill="#549F57" height="4" rx="1" ry="1" width="4" x="215.20000000000013" y="30.5"><title>2024-09-25 130.55 mins</title></rect><rect fill="#65bd6a" height="4" rx="1" ry="1" width="4" x="215.20000000000013" y="35.9"><title>2024-09-26 69.62 mins</title></rect><rect fill="#549F57" height="4" rx="1" ry="1" width="4" x="215.20000000000013" y="41.300000000000004"><title>2024-09-27 83.07 mins</title></rect><rect fill="#549F57" height="4" rx="1" ry="1" width="4" x="215.20000000000013" y="46.699999999999996"><title>2024-09-28 342.07 mins</title></rect><rect fill="#549F57" height="4" rx="1" ry="1" width="4" x="215.20000000000013" y="52.1"><title>2024-09-29 179.37 mins</title></rect><rect fill="#66be6b" height="4" rx="1" ry="1" width="4" x="220.60000000000014" y="19.7"><title>2024-09-30 45.88 mins</title></rect><rect fill="#66be6b" height="4" rx="1" ry="1" width="4" x="220.60000000000014" y="25.1"><title>2024-10-01 54.32 mins</title></rect><rect fill="#549F57" height="4" rx="1" ry="1" width="4" x="220.60000000000014" y="30.5"><title>2024-10-02 104.73 mins</title></rect><rect fill="#68bf6c" height="4" rx="1" ry="1" width="4" x="220.60000000000014" y="35.9"><title>2024-10-03 26.48 mins</title></rect><rect fill="#65bd6a" height="4" rx="1" ry="1" width="4" x="220.60000000000014" y="41.300000000000004"><title>2024-10-04 65.45 mins</title></rect><rect fill="#65bd6a" height="4" rx="1" ry="1" width="4" x="220.60000000000014" y="46.699999999999996"><title>2024-10-05 62.63 mins</title></rect><rect fill="#65bd6a" height="4" rx="1" ry="1" width="4" x="220.60000000000014" y="52.1"><title>2024-10-06 63.12 mins</title></rect><text fill="#000000" style="font-size:2.5px; font-family:Arial" x="226.00000000000014" y="18.3">Oct</text><rect fill="#67bf6c" height="4" rx="1" ry="1" width="4" x="226.00000000000014" y="19.7"><title>2024-10-07 28.07 mins</title></rect><rect fill="#549F57" height="4" rx="1" ry="1" width="4" x="226.00000000000014" y="25.1"><title>2024-10-08 226.78 mins</title></rect><rect fill="#a9e6ac" height="4" rx="1" ry="1" width="4" x="226.00000000000014" y="30.5"><title>2024-10-09 11.05 mins</title></rect><rect fill="#abe6ad" height="4" rx="1" ry="1" width="4" x="226.00000000000014" y="35.9"><title>2024-10-10 5.7 mins</title></rect><rect fill="#67bf6c" height="4" rx="1" ry="1" width="4" x="226.00000000000014" y="41.300000000000004"><title>2024-10-11 32.6 mins</title></rect><rect fill="#a7e5a9" height="4" rx="1" ry="1" width="4" x="226.00000000000014" y="46.699999999999996"><title>2024-10-12 23.98 mins</title></rect><rect fill="#aae6ac" height="4" rx="1" ry="1" width="4" x="226.00000000000014" y="52.1"><title>2024-10-13 8.85 mins</title></rect><rect fill="#a9e6ab" height="4" rx="1" ry="1" width="4" x="231.40000000000015" y="19.7"><title>2024-10-14 14.32 mins</title></rect><rect fill="#549F57" height="4" rx="1" ry="1" width="4" x="231.40000000000015" y="25.1"><title>2024-10-15 86.82 mins</title></rect><rect fill="#549F57" height="4" rx="1" ry="1" width="4" x="231.40000000000015" y="30.5"><title>2024-10-16 74.32 mins</title></rect><rect fill="#66bd6a" height="4" rx="1" ry="1" width="4" x="231.40000000000015" y="35.9"><title>2024-10-17 61.78 mins</title></rect><rect fill="#66be6b" height="4" rx="1" ry="1" width="4" x="231.40000000000015" y="41.300000000000004"><title>2024-10-18 48.27 mins</title></rect><rect fill="#66be6b" height="4" rx="1" ry="1" width="4" x="231.40000000000015" y="46.699999999999996"><title>2024-10-19 57.57 mins</title></rect><rect fill="#549F57" height="4" rx="1" ry="1" width="4" x="231.40000000000015" y="52.1"><title>2024-10-20 93.85 mins</title></rect><rect fill="#67bf6c" height="4" rx="1" ry="1" width="4" x="236.80000000000015" y="19.7"><title>2024-10-21 33.2 mins</title></rect><rect fill="#aae6ac" height="4" rx="1" ry="1" width="4" x="236.80000000000015" y="25.1"><title>2024-10-22 6.73 mins</title></rect><rect fill="#66be6a" height="4" rx="1" ry="1" width="4" x="236.80000000000015" y="30.5"><title>2024-10-23 61.07 mins</title></rect><rect fill="#67bf6c" height="4" rx="1" ry="1" width="4" x="236.80000000000015" y="35.9"><title>2024-10-24 29.53 mins</title></rect><rect fill="#a7e5a9" height="4" rx="1" ry="1" width="4" x="236.80000000000015" y="41.300000000000004"><title>2024-10-25 20.97 mins</title></rect><rect fill="#aae6ac" height="4" rx="1" ry="1" width="4" x="236.80000000000015" y="46.699999999999996"><title>2024-10-26 8.28 mins</title></rect><rect fill="#67bf6c" height="4" rx="1" ry="1" width="4" x="236.80000000000015" y="52.1"><title>2024-10-27 31.92 mins</title></rect><rect fill="#67bf6c" height="4" rx="1" ry="1" width="4" x="242.20000000000016" y="19.7"><title>2024-10-28 27.33 mins</title></rect><rect fill="#549F57" height="4" rx="1" ry="1" width="4" x="242.20000000000016" y="25.1"><title>2024-10-29 402.05 mins</title></rect><rect fill="#65bd6a" height="4" rx="1" ry="1" width="4" x="242.20000000000016" y="30.5"><title>2024-10-30 69.23 mins</title></rect><rect fill="#549F57" height="4" rx="1" ry="1" width="4" x="242.20000000000016" y="35.9"><title>2024-10-31 85.17 mins</title></rect><rect fill="#65bd6a" height="4" rx="1" ry="1" width="4" x="242.20000000000016" y="41.300000000000004"><title>2024-11-01 68.48 mins</title></rect><rect fill="#66be6b" height="4" rx="1" ry="1" width="4" x="242.20000000000016" y="46.699999999999996"><title>2024-11-02 53.97 mins</title></rect><rect fill="#67bf6c" height="4" rx="1" ry="1" width="4" x="242.20000000000016" y="52.1"><title>2024-11-03 27.98 mins</title></rect><text fill="#000000" style="font-size:2.5px; font-family:Arial" x="247.60000000000016" y="18.3">Nov</text><rect fill="#a8e5aa" height="4" rx="1" ry="1" width="4" x="247.60000000000016" y="19.7"><title>2024-11-04 16.58 mins</title></rect><rect fill="#a7e5a9" height="4" rx="1" ry="1" width="4" x="247.60000000000016" y="25.1"><title>2024-11-05 22.27 mins</title></rect><rect fill="#a7e5a9" height="4" rx="1" ry="1" width="4" x="247.60000000000016" y="30.5"><title>2024-11-06 23.4 mins</title></rect><rect fill="#abe6ad" height="4" rx="1" ry="1" width="4" x="247.60000000000016" y="35.9"><title>2024-11-07 5.18 mins</title></rect><rect fill="#66be6b" height="4" rx="1" ry="1" width="4" x="247.60000000000016" y="41.300000000000004"><title>2024-11-08 56.32 mins</title></rect><rect fill="#67bf6c" height="4" rx="1" ry="1" width="4" x="247.60000000000016" y="46.699999999999996"><title>2024-11-09 36.73 mins</title></rect><rect fill="#abe7ad" height="4" rx="1" ry="1" width="4" x="247.60000000000016" y="52.1"><title>2024-11-10 3.32 mins</title></rect><rect fill="#ace7ae" height="4" rx="1" ry="1" width="4" x="253.00000000000017" y="19.7"><title>2024-11-11 0.17 mins</title></rect><rect fill="#66be6b" height="4" rx="1" ry="1" width="4" x="253.00000000000017" y="25.1"><title>2024-11-12 44.58 mins</title></rect><rect fill="#a9e6ac" height="4" rx="1" ry="1" width="4" x="253.00000000000017" y="30.5"><title>2024-11-13 11.2 mins</title></rect><rect fill="#a7e5a9" height="4" rx="1" ry="1" width="4" x="253.00000000000017" y="35.9"><title>2024-11-14 22.82 mins</title></rect><rect fill="#68c06d" height="4" rx="1" ry="1" width="4" x="253.00000000000017" y="41.300000000000004"><title>2024-11-15 24.32 mins</title></rect><rect fill="#a7e5aa" height="4" rx="1" ry="1" width="4" x="253.00000000000017" y="46.699999999999996"><title>2024-11-16 20.15 mins</title></rect><rect fill="#abe7ad" height="4" rx="1" ry="1" width="4" x="253.00000000000017" y="52.1"><title>2024-11-17 4.48 mins</title></rect><rect fill="#a8e5aa" height="4" rx="1" ry="1" width="4" x="258.40000000000015" y="19.7"><title>2024-11-18 18.25 mins</title></rect><rect fill="#549F57" height="4" rx="1" ry="1" width="4" x="258.40000000000015" y="25.1"><title>2024-11-19 185.98 mins</title></rect><rect fill="#a8e5aa" height="4" rx="1" ry="1" width="4" x="258.40000000000015" y="30.5"><title>2024-11-20 16.33 mins</title></rect><rect fill="#65bd6a" height="4" rx="1" ry="1" width="4" x="258.40000000000015" y="35.9"><title>2024-11-21 67.38 mins</title></rect><rect fill="#ace7ae" height="4" rx="1" ry="1" width="4" x="258.40000000000015" y="41.300000000000004"><title>2024-11-22 1.85 mins</title></rect><rect fill="#a8e5aa" height="4" rx="1" ry="1" width="4" x="258.40000000000015" y="46.699999999999996"><title>2024-11-23 19.57 mins</title></rect><rect fill="#67bf6c" height="4" rx="1" ry="1" width="4" x="258.40000000000015" y="52.1"><title>2024-11-24 32.45 mins</title></rect><rect fill="#67bf6c" height="4" rx="1" ry="1" width="4" x="263.8000000000001" y="19.7"><title>2024-11-25 27.02 mins</title></rect><rect fill="#549F57" height="4" rx="1" ry="1" width="4" x="263.8000000000001" y="25.1"><title>2024-11-26 105.95 mins</title></rect><rect fill="#a8e5aa" height="4" rx="1" ry="1" width="4" x="263.8000000000001" y="30.5"><title>2024-11-27 16.88 mins</title></rect><rect fill="#68c06c" height="4" rx="1" ry="1" width="4" x="263.8000000000001" y="35.9"><title>2024-11-28 25.7 mins</title></rect><rect fill="#a8e5aa" height="4" rx="1" ry="1" width="4" x="263.8000000000001" y="41.300000000000004"><title>2024-11-29 15.75 mins</title></rect><rect fill="#549F57" height="4" rx="1" ry="1" width="4" x="263.8000000000001" y="46.699999999999996"><title>2024-11-30 165.32 mins</title></rect><rect fill="#549F57" height="4" rx="1" ry="1" width="4" x="263.8000000000001" y="52.1"><title>2024-12-01 92.13 mins</title></rect><text fill="#000000" style="font-size:2.5px; font-family:Arial" x="269.2000000000001" y="18.3">Dec</text><rect fill="#549F57" height="4" rx="1" ry="1" width="4" x="269.2000000000001" y="19.7"><title>2024-12-02 215.12 mins</title></rect><rect fill="#549F57" height="4" rx="1" ry="1" width="4" x="269.2000000000001" y="25.1"><title>2024-12-03 238.05 mins</title></rect><rect fill="#aae6ac" height="4" rx="1" ry="1" width="4" x="269.2000000000001" y="30.5"><title>2024-12-04 9.87 mins</title></rect><rect fill="#549F57" height="4" rx="1" ry="1" width="4" x="269.2000000000001" y="35.9"><title>2024-12-05 200.68 mins</title></rect><rect fill="#549F57" height="4" rx="1" ry="1" width="4" x="269.2000000000001" y="41.300000000000004"><title>2024-12-06 164.05 mins</title></rect><rect fill="#ace7ae" height="4" rx="1" ry="1" width="4" x="269.2000000000001" y="46.699999999999996"><title>2024-12-07 1.32 mins</title></rect><rect fill="#a7e5a9" height="4" rx="1" ry="1" width="4" x="269.2000000000001" y="52.1"><title>2024-12-08 21.57 mins</title></rect><rect fill="#65bd6a" height="4" rx="1" ry="1" width="4" x="274.6000000000001" y="19.7"><title>2024-12-09 65.73 mins</title></rect><rect fill="#549F57" height="4" rx="1" ry="1" width="4" x="274.6000000000001" y="25.1"><title>2024-12-10 144.22 mins</title></rect><rect fill="#549F57" height="4" rx="1" ry="1" width="4" x="274.6000000000001" y="30.5"><title>2024-12-11 170.4 mins</title></rect><rect fill="#66be6b" height="4" rx="1" ry="1" width="4" x="274.6000000000001" y="35.9"><title>2024-12-12 56.78 mins</title></rect><rect fill="#66be6b" height="4" rx="1" ry="1" width="4" x="274.6000000000001" y="41.300000000000004"><title>2024-12-13 56.25 mins</title></rect><rect fill="#66be6b" height="4" rx="1" ry="1" width="4" x="274.6000000000001" y="46.699999999999996"><title>2024-12-14 48.2 mins</title></rect><rect fill="#67bf6c" height="4" rx="1" ry="1" width="4" x="274.6000000000001" y="52.1"><title>2024-12-15 39.18 mins</title></rect><rect fill="#67bf6c" height="4" rx="1" ry="1" width="4" x="280.00000000000006" y="19.7"><title>2024-12-16 32.6 mins</title></rect><rect fill="#ace7ae" height="4" rx="1" ry="1" width="4" x="280.00000000000006" y="25.1"><title>2024-12-17 0.43 mins</title></rect><rect fill="#67bf6c" height="4" rx="1" ry="1" width="4" x="280.00000000000006" y="30.5"><title>2024-12-18 28.72 mins</title></rect><rect fill="#aae6ac" height="4" rx="1" ry="1" width="4" x="280.00000000000006" y="35.9"><title>2024-12-19 10.83 mins</title></rect><rect fill="#68c06d" height="4" rx="1" ry="1" width="4" x="280.00000000000006" y="41.300000000000004"><title>2024-12-20 24.27 mins</title></rect><rect fill="#abe6ad" height="4" rx="1" ry="1" width="4" x="280.00000000000006" y="46.699999999999996"><title>2024-12-21 5.9 mins</title></rect><rect fill="#EBEDF0" height="4" rx="1" ry="1" width="4" x="280.00000000000006" y="52.1"><title>2024-12-22</title></rect><rect fill="#67bf6c" height="4" rx="1" ry="1" width="4" x="285.40000000000003" y="19.7"><title>2024-12-23 31.97 mins</title></rect><rect fill="#549F57" height="4" rx="1" ry="1" width="4" x="285.40000000000003" y="25.1"><title>2024-12-24 100.55 mins</title></rect><rect fill="#EBEDF0" height="4" rx="1" ry="1" width="4" x="285.40000000000003" y="30.5"><title>2024-12-25</title></rect><rect fill="#EBEDF0" height="4" rx="1" ry="1" width="4" x="285.40000000000003" y="35.9"><title>2024-12-26</title></rect><rect fill="#EBEDF0" height="4" rx="1" ry="1" width="4" x="285.40000000000003" y="41.300000000000004"><title>2024-12-27</title></rect><rect fill="#EBEDF0" height="4" rx="1" ry="1" width="4" x="285.40000000000003" y="46.699999999999996"><title>2024-12-28</title></rect><rect fill="#EBEDF0" height="4" rx="1" ry="1" width="4" x="285.40000000000003" y="52.1"><title>2024-12-29</title></rect><rect fill="#EBEDF0" height="4" rx="1" ry="1" width="4" x="290.8" y="19.7"><title>2024-12-30</title></rect><rect fill="#EBEDF0" height="4" rx="1" ry="1" width="4" x="290.8" y="25.1"><title>2024-12-31</title></rect></svg>